<svg width="943" height="189" viewBox="0 0 943 189" fill="none" xmlns="http://www.w3.org/2000/svg">
<g clip-path="url(#clip0_331_7249)">
<path d="M-5.24284e-05 187.119C1.37231 184.164 2.80132 181.227 4.11073 178.243C19.2193 143.862 34.3152 109.476 49.408 75.0891C57.9412 55.6499 66.4839 36.2171 74.9572 16.7529C75.6151 15.2422 76.3831 14.7219 78.0482 14.7438C85.7504 14.8441 93.4558 14.8096 101.161 14.7626C102.26 14.7564 102.785 15.0792 103.232 16.1167C117.607 49.281 132.02 82.4265 146.43 115.575C156.537 138.819 166.647 162.064 176.751 185.308C177.019 185.922 177.258 186.546 177.579 187.332C176.937 187.373 176.443 187.43 175.952 187.43C165.262 187.436 154.57 187.417 143.881 187.464C142.71 187.47 142.149 187.138 141.696 186.032C136.594 173.576 131.435 161.145 126.285 148.711C126.15 148.388 125.967 148.084 125.782 147.724C123.616 150.103 121.564 152.472 119.392 154.726C107.192 167.389 92.5335 176.087 75.7725 181.324C61.5988 185.753 47.0316 187.464 32.2221 187.445C21.4793 187.433 10.7365 187.436 -0.00634766 187.433C-0.00634766 187.329 -0.00634766 187.223 -0.00634766 187.119H-5.24284e-05ZM40.3838 160.39C41.0448 160.446 41.4446 160.509 41.8443 160.509C52.0489 160.509 61.9639 158.876 71.5326 155.29C89.537 148.542 103.22 136.688 113.163 120.389C113.884 119.208 113.981 118.246 113.481 116.932C105.31 95.5562 97.1983 74.155 89.0648 52.7632C88.9106 52.3558 88.684 51.9734 88.3661 51.3214C72.3101 87.8207 56.3832 124.025 40.3838 160.393V160.39Z" fill="#222A5C"/>
<path d="M813.658 0C813.633 0.730298 813.586 1.45746 813.586 2.18776C813.583 62.5142 813.583 122.844 813.583 183.17V185.421H785.55V168.009L785.132 167.897C784.855 168.235 784.54 168.545 784.307 168.912C777.307 179.81 766.907 185.461 754.515 188C752.425 188.43 750.297 188.671 748.185 189H740.316C737.681 188.627 735.012 188.404 732.415 187.856C713.659 183.9 700.099 173.143 692.456 155.776C683.184 134.704 683.379 113.403 694.54 93.0457C704.074 75.6564 719.306 66.1625 739.265 64.5452C750.719 63.6175 761.452 65.9055 771.314 71.914C775.657 74.5594 779.296 77.9852 782.557 81.8436C782.881 82.2291 783.309 82.5269 784.061 83.1976V0C793.932 0 803.797 0 813.658 0ZM716.073 126.824C716.246 128.595 716.366 131.053 716.753 133.466C717.108 135.669 717.622 137.87 718.292 140.001C721.37 149.83 727.149 157.591 736.762 161.766C750.804 167.865 767.883 164.405 777.996 149.486C785.569 138.315 786.929 126.122 782.84 113.309C778.638 100.145 765.723 87.2566 748.201 88.3316C739.044 88.8927 731.364 92.3624 725.428 99.3425C718.868 107.056 716.407 116.24 716.079 126.821L716.073 126.824Z" fill="#222A5C"/>
<path d="M471.198 189C468.044 188.574 464.859 188.304 461.739 187.696C442.819 184.007 427.915 174.629 418.869 157.193C414.566 148.896 412.665 139.976 412.322 130.676C411.884 118.901 413.697 107.58 419.121 96.9949C427.792 80.0758 441.746 69.9519 460.191 65.8898C471.434 63.4137 482.684 63.7209 493.751 67.0934C508.611 71.6225 519.089 81.1321 525.567 95.1143C530.313 105.357 531.928 116.221 531.963 127.392C531.969 129.532 531.963 131.67 531.919 133.811C531.875 135.951 531.853 135.951 529.766 135.951C501.179 135.951 472.589 135.951 444.003 135.951C443.332 135.951 442.665 135.951 441.837 135.951C441.976 139.985 442.995 143.615 444.758 147.009C449.467 156.09 457.16 161.709 466.924 163.809C482.558 167.173 496.259 163.7 506.423 150.445C506.574 150.247 506.763 150.075 506.986 149.84C513.492 155.024 519.951 160.17 526.587 165.458C525.557 166.718 524.604 167.944 523.584 169.113C514.641 179.381 503.332 185.427 489.945 187.715C486.861 188.241 483.744 188.574 480.644 188.994C477.496 188.994 474.349 188.994 471.201 188.994L471.198 189ZM441.828 114.832H502.545C502.381 112.858 502.331 110.99 502.051 109.156C500.622 99.8064 496.039 92.6852 487.15 88.7516C481.318 86.1689 475.161 85.8649 468.957 86.7895C457.852 88.4445 449.508 94.1019 444.468 104.22C442.835 107.498 441.947 111.024 441.828 114.836V114.832Z" fill="#222A5C"/>
<path d="M229.461 189C226.411 188.571 223.336 188.276 220.317 187.693C207.62 185.239 196.112 180.346 186.751 171.147C186.276 170.68 185.618 170.398 184.922 169.95C191.768 163.565 198.142 157.619 204.384 151.799C206.241 153.526 207.969 155.256 209.823 156.836C217.658 163.509 226.71 166.74 237.053 166.129C240.745 165.91 244.302 165.063 247.56 163.242C252.234 160.628 254.334 156.585 254.038 151.301C253.77 146.536 251.227 143.364 246.937 141.456C239.87 138.309 232.382 136.557 224.913 134.723C217.62 132.933 210.462 130.742 204.233 126.345C196.452 120.857 192.376 113.41 191.979 103.859C191.57 93.9423 194.198 85.1724 201.205 77.9415C206.546 72.4283 213.138 68.9303 220.481 66.9463C238.111 62.1821 255.155 63.8465 271.425 72.1932C276.08 74.5815 279.983 77.9886 283.282 82.245C276.933 87.8335 270.622 93.3875 264.22 99.023C263.893 98.672 263.578 98.3554 263.285 98.02C254.334 87.7175 240.569 83.7777 228.127 88.0968C226.137 88.7863 224.091 89.7768 222.53 91.1465C216.874 96.1175 218.441 105.803 225.467 108.683C230.188 110.62 235.152 111.999 240.059 113.457C246.024 115.231 252.121 116.585 258.013 118.559C265.785 121.167 272.609 125.333 277.62 132.043C281.431 137.146 282.996 142.907 283.046 149.188C283.109 156.911 281.718 164.214 277.346 170.783C272.004 178.804 264.368 183.622 255.246 186.038C250.267 187.358 245.061 187.831 239.955 188.687C239.395 188.781 238.838 188.894 238.281 188.997H229.467L229.461 189Z" fill="#222A5C"/>
<path d="M356.625 189C353.625 188.593 350.61 188.276 347.629 187.762C319.609 182.941 301.935 163.189 297.953 139.202C295.161 122.383 297.365 106.335 306.877 91.7575C314.252 80.4583 324.459 72.613 337.21 68.2908C357.273 61.4862 376.609 63.2069 394.916 74.1112C398.661 76.3429 401.91 79.2296 404.786 82.7244C398.101 88.5699 391.459 94.3778 384.742 100.252C383.949 99.3771 383.238 98.4775 382.41 97.7002C368.095 84.2257 341.718 84.6802 331.513 108.043C325.508 121.794 325.973 135.673 333.613 148.809C340.934 161.396 353.858 166.58 368.17 163.788C375.114 162.433 381.334 159.635 385.797 154.406C392.061 160.415 398.309 166.408 404.613 172.457C401.119 176.234 397.207 179.092 392.898 181.409C384.9 185.709 376.304 187.972 367.267 188.687C366.653 188.734 366.046 188.893 365.435 189.003H356.622L356.625 189Z" fill="#222A5C"/>
<path d="M586.073 185.43H556.656V67.9021H584.547V86.5169C584.682 86.5545 584.814 86.589 584.95 86.6266C585.145 86.3884 585.378 86.169 585.526 85.9057C592.633 73.1678 603.338 65.8147 618.018 64.5703C626.848 63.8212 635.384 64.9621 643.297 69.228C654.556 75.296 660.889 84.9654 663.769 97.1329C664.94 102.082 665.45 107.097 665.444 112.187C665.412 135.901 665.431 159.616 665.431 183.33C665.431 183.998 665.431 184.662 665.431 185.424H635.979C635.979 179.284 635.982 173.181 635.979 167.082C635.969 150.887 636.017 134.692 635.91 118.496C635.869 112.381 635.381 106.298 632.712 100.609C628.903 92.4909 621.538 88.4414 612.551 88.7799C599.932 89.2563 590.427 98.0042 587.399 110.786C586.59 114.206 586.149 117.794 586.127 121.308C586.01 141.991 586.07 162.678 586.07 183.361C586.07 184.026 586.07 184.693 586.07 185.433L586.073 185.43Z" fill="#222A5C"/>
<path d="M942.981 185.43H915.396V170.263C914.801 170.749 914.436 170.921 914.253 171.209C908.764 179.844 900.542 184.662 890.869 186.865C876.23 190.2 862.003 188.787 849.11 180.644C837.47 173.291 832.632 162.349 833.709 148.714C834.263 141.722 836.488 135.478 841.518 130.407C847.637 124.238 855.125 120.43 863.34 117.869C872.9 114.892 882.72 113.412 892.689 112.864C899.702 112.478 906.721 112.262 913.737 111.964C914.093 111.949 914.442 111.889 914.779 111.851C915.739 102.611 912.61 95.3335 904.467 91.1524C897.857 87.7579 890.816 86.8113 883.554 87.5541C872.925 88.6386 863.838 93.2085 855.981 100.33C855.868 100.433 855.729 100.505 855.415 100.725C850.413 94.8697 845.405 89.0085 840.243 82.9624C841.697 81.7274 843.032 80.5019 844.458 79.3955C854.622 71.5095 866.236 67.0838 878.893 65.2158C888.953 63.7333 899.012 63.868 908.864 66.3912C927.029 71.0456 938.357 82.4013 941.662 101.032C942.462 105.53 942.896 110.15 942.922 114.716C943.044 137.644 942.978 160.568 942.978 183.496V185.427L942.981 185.43ZM918.468 131.939C918.216 131.867 918.018 131.764 917.822 131.764C907.766 131.783 897.697 131.657 887.772 133.654C882.031 134.81 876.582 136.71 871.874 140.364C865.991 144.931 864.801 153.895 869.418 159.672C871.804 162.656 875.081 164.251 878.701 165.176C883.746 166.467 888.877 166.486 893.998 165.8C900.369 164.944 906.176 162.759 910.725 157.995C917.753 150.633 918.924 141.543 918.474 131.939H918.468Z" fill="#222A5C"/>
</g>
<defs>
<clipPath id="clip0_331_7249">
<rect width="943" height="189" fill="white"/>
</clipPath>
</defs>
</svg>
